<svg id="visual" viewBox="0 0 900 600" width="900" height="600" xmlns="http://www.w3.org/2000/svg" xmlns:xlink="http://www.w3.org/1999/xlink" version="1.1"><path d="M0 133L39 181L78 79L117 169L157 229L196 193L235 121L274 151L313 145L352 163L391 97L430 295L470 325L509 205L548 127L587 187L626 241L665 223L704 115L743 211L783 139L822 259L861 217L900 271L900 0L861 0L822 0L783 0L743 0L704 0L665 0L626 0L587 0L548 0L509 0L470 0L430 0L391 0L352 0L313 0L274 0L235 0L196 0L157 0L117 0L78 0L39 0L0 0Z" fill="#acecd9"></path><path d="M0 397L39 343L78 313L117 283L157 337L196 487L235 337L274 391L313 331L352 313L391 331L430 397L470 439L509 301L548 373L587 469L626 385L665 385L704 319L743 415L783 343L822 409L861 433L900 355L900 269L861 215L822 257L783 137L743 209L704 113L665 221L626 239L587 185L548 125L509 203L470 323L430 293L391 95L352 161L313 143L274 149L235 119L196 191L157 227L117 167L78 77L39 179L0 131Z" fill="#7adeb6"></path><path d="M0 457L39 511L78 505L117 457L157 535L196 559L235 475L274 547L313 535L352 493L391 511L430 487L470 535L509 475L548 499L587 559L626 451L665 493L704 457L743 547L783 463L822 565L861 541L900 505L900 353L861 431L822 407L783 341L743 413L704 317L665 383L626 383L587 467L548 371L509 299L470 437L430 395L391 329L352 311L313 329L274 389L235 335L196 485L157 335L117 281L78 311L39 341L0 395Z" fill="#4dcf8c"></path><path d="M0 601L39 601L78 601L117 601L157 601L196 601L235 601L274 601L313 601L352 601L391 601L430 601L470 601L509 601L548 601L587 601L626 601L665 601L704 601L743 601L783 601L822 601L861 601L900 601L900 503L861 539L822 563L783 461L743 545L704 455L665 491L626 449L587 557L548 497L509 473L470 533L430 485L391 509L352 491L313 533L274 545L235 473L196 557L157 533L117 455L78 503L39 509L0 455Z" fill="#21be5a"></path></svg>